<?xml version="1.0" encoding="utf-8"?>
<!-- Generator: Adobe Illustrator 19.0.1, SVG Export Plug-In . SVG Version: 6.00 Build 0)  -->
<svg version="1.1" id="Capa_1" xmlns="http://www.w3.org/2000/svg" xmlns:xlink="http://www.w3.org/1999/xlink" x="0px" y="0px"
	 viewBox="201.5 393 11 8" style="enable-background:new 201.5 393 11 8;" xml:space="preserve">
<style type="text/css">
	.st0{fill:#E45028;}
</style>
<g>
	<path class="st0" d="M212.3,394.1l-1-0.9c-0.1-0.1-0.3-0.2-0.5-0.2c-0.2,0-0.4,0.1-0.5,0.2l-4.7,4.4l-2.1-2
		c-0.1-0.1-0.3-0.2-0.5-0.2c-0.2,0-0.4,0.1-0.5,0.2l-1,0.9c-0.1,0.1-0.2,0.3-0.2,0.5c0,0.2,0.1,0.3,0.2,0.5l2.6,2.4l1,0.9
		c0.1,0.1,0.3,0.2,0.5,0.2c0.2,0,0.4-0.1,0.5-0.2l1-0.9l5.1-4.9c0.1-0.1,0.2-0.3,0.2-0.5C212.5,394.4,212.4,394.2,212.3,394.1z"/>
</g>
</svg>
